<?xml version="1.0" encoding="utf-8"?>
<svg viewBox="5.527 -4.18 66.663 16.759" xmlns="http://www.w3.org/2000/svg">
  <g transform="matrix(1, 0, 0, 1, -17.810066, -13.800522)">
    <title>Layer 1</title>
    <g y="36.001397" x="-312.364917" stroke="null" transform="matrix(0.1977638677853388,0,0,0.1989312536498365,67.27470134572036,-7.300306208338982) " id="SvgjsG1021">
      <svg stroke="null" id="svg_2" y="37.181159" x="-338.667509" width="82.015625" preserveAspectRatio="none" viewBox="0 0 72.99998474121094 160.1999969482422" height="180">
        <g stroke="null" id="svg_1">
          <svg stroke="null" id="svg_3" width="72.999985" height="160.199997" viewBox="63.5 20 72.99998474121094 160.1999969482422">
            <g stroke="null" id="svg_4"/>
          </svg>
        </g>
      </svg>
    </g>
    <g y="-2.817146" x="-109.502715" stroke="null" transform="matrix(0.373721329735762,0,0,0.373721329735762,62.60250995026249,10.673293629973818) " id="SvgjsG1023">
      <svg stroke="null" id="svg_8" y="-2.817146" x="-105.065057" height="44.84375" preserveAspectRatio="none" viewBox="3.1700000762939453 -0.690000057220459 178.38999938964844 44.849998474121094" width="178.375">
        <path id="svg_9" d="m3.31,14.4l6.44,0l0,20.1l-6.44,0l0,-20.1zm-0.14,-7.13l0,0q0,-1.38 1.08,-2.32l0,0l0,0q1.09,-0.95 2.47,-0.95l0,0l0,0q1.33,0 2.39,0.95l0,0l0,0q1.06,0.94 1.06,2.32l0,0l0,0q0,1.38 -1.06,2.3l0,0l0,0q-1.06,0.92 -2.39,0.92l0,0l0,0q-1.38,0 -2.47,-0.92l0,0l0,0q-1.08,-0.92 -1.08,-2.3l0,0zm11.96,-6.63l22.82,0l0,6.44l-8.23,0l0,27.42l-6.67,0l0,-27.42l-7.92,0l0,-6.44zm28.2,13.76l6.44,0l0,20.1l-6.44,0l0,-20.1zm-0.14,-7.13l0,0q0,-1.38 1.08,-2.32l0,0l0,0q1.09,-0.95 2.47,-0.95l0,0l0,0q1.33,0 2.39,0.95l0,0l0,0q1.06,0.94 1.06,2.32l0,0l0,0q0,1.38 -1.06,2.3l0,0l0,0q-1.06,0.92 -2.39,0.92l0,0l0,0q-1.38,0 -2.47,-0.92l0,0l0,0q-1.08,-0.92 -1.08,-2.3l0,0zm23.23,22.31l0,0q1.94,0 4.01,-1.34l0,0l2.85,4.79l0,0q-1.66,0.92 -3.5,1.47l0,0l0,0q-1.84,0.55 -3.49,0.55l0,0l0,0q-3.59,0 -6.19,-1.35l0,0l0,0q-2.6,-1.36 -3.93,-3.82l0,0l0,0q-1.34,-2.46 -1.34,-5.64l0,0l0,0q0,-2.94 1.54,-5.43l0,0l0,0q1.54,-2.48 4.21,-3.93l0,0l0,0q2.67,-1.45 5.84,-1.45l0,0l0,0q4.33,0 7.11,2.53l0,0l0,0q2.78,2.53 3.61,7.22l0,0l-14.72,4.7l0,0q1.47,1.7 4,1.7l0,0zm-0.5,-11.13l0,0q-2.16,0 -3.45,1.47l0,0l0,0q-1.29,1.47 -1.29,3.95l0,0l0,0.42l8.83,-2.99l0,0q-0.96,-2.85 -4.09,-2.85l0,0zm42.41,-5.06l0,0q2.94,0 4.71,1.65l0,0l0,0q1.78,1.66 1.87,4.37l0,0l0,15.09l-6.4,0l0,-12.42l0,0q-0.09,-1.52 -0.5,-2.28l0,0l0,0q-0.42,-0.76 -1.61,-0.85l0,0l0,0q-2.26,0 -3.52,2.19l0,0l0,0q-1.27,2.18 -1.27,5.13l0,0l0,8.23l-6.44,0l0,-12.42l0,0q-0.09,-1.52 -0.55,-2.28l0,0l0,0q-0.46,-0.76 -1.7,-0.85l0,0l0,0q-2.16,0 -3.4,2.19l0,0l0,0q-1.25,2.18 -1.25,5.03l0,0l0,8.33l-6.44,0l0,-20.1l5.85,0l0.46,3.17l0,0q2.43,-4.18 7.26,-4.18l0,0l0,0q2.44,0 4.03,0.99l0,0l0,0q1.59,0.98 2.18,2.92l0,0l0,0q1.29,-1.8 3.06,-2.86l0,0l0,0q1.77,-1.05 3.66,-1.05l0,0zm27.09,0l0,0q2.81,0 5.02,1.33l0,0l0,0q2.21,1.33 3.47,3.82l0,0l0,0q1.27,2.48 1.27,5.84l0,0l0,0q0,3.31 -1.41,5.73l0,0l0,0q-1.4,2.41 -3.91,3.68l0,0l0,0q-2.5,1.26 -5.72,1.26l0,0l0,0q-1.75,0 -3.43,-0.62l0,0l0,0q-1.68,-0.62 -2.78,-1.77l0,0l0,11.5l-6.4,0l0,-30.22l5.52,0l0.55,2.39l0,0q3.68,-2.94 7.82,-2.94l0,0zm-2.57,16.6l0,0q2.39,0 4.09,-1.56l0,0l0,0q1.7,-1.57 1.7,-3.96l0,0l0,0q0,-2.48 -1.54,-4.07l0,0l0,0q-1.54,-1.59 -3.79,-1.59l0,0l0,0q-1.89,0 -3.2,0.76l0,0l0,0q-1.31,0.76 -2.14,2.28l0,0l0,4.92l0,0q0.51,1.47 1.82,2.35l0,0l0,0q1.31,0.87 3.06,0.87l0,0zm15.82,-5.79l0,0q0,-3.09 1.45,-5.52l0,0l0,0q1.45,-2.44 4.1,-3.84l0,0l0,0q2.64,-1.41 6,-1.41l0,0l0,0q3.36,0 5.91,1.41l0,0l0,0q2.55,1.4 3.93,3.84l0,0l0,0q1.38,2.43 1.38,5.52l0,0l0,0q0,3.08 -1.38,5.56l0,0l0,0q-1.38,2.49 -3.93,3.89l0,0l0,0q-2.55,1.4 -6,1.4l0,0l0,0q-3.36,0 -5.96,-1.31l0,0l0,0q-2.6,-1.31 -4.05,-3.75l0,0l0,0q-1.45,-2.44 -1.45,-5.79l0,0zm6.49,0.04l0,0q0,2.39 1.38,3.98l0,0l0,0q1.38,1.59 3.49,1.59l0,0l0,0q2.21,0 3.57,-1.57l0,0l0,0q1.36,-1.56 1.36,-4l0,0l0,0q0,-2.44 -1.36,-4l0,0l0,0q-1.36,-1.56 -3.57,-1.56l0,0l0,0q-2.11,0 -3.49,1.58l0,0l0,0q-1.38,1.59 -1.38,3.98l0,0zm19.69,-24.93l5.75,0l0,26.04l-5.75,0l0,-26.04zm3.03,35.83l0,0q-1.65,0 -2.71,-0.89l0,0l0,0q-1.06,-0.9 -1.06,-2.37l0,0l0,0q0,-1.43 1.08,-2.39l0,0l0,0q1.08,-0.97 2.69,-0.97l0,0l0,0q1.61,0 2.65,0.97l0,0l0,0q1.03,0.96 1.03,2.39l0,0l0,0q0,1.47 -1.01,2.37l0,0l0,0q-1.01,0.89 -2.67,0.89l0,0z" fill="#FFFFFF"/>
      </svg>
    </g>
  </g>
</svg>